# xmcd
#
# Track frame offsets:
#	150
#	11582
#	25057
#	38407
#	47460
#	59590
#	73927
#	84300
#	98095
#	112935
#	124215
#	137410
#	149330
#
# Disc length: 2146 seconds
#
# Revision: 1
# Processed by: cddbd v1.5.2PL0 Copyright (c) Steve Scherf et al.
# Submitted via: audiograbber 1.83.01
#
DISCID=a508600d
DTITLE=Various Artist - Aloha, The Music of Hawaii 1
DYEAR=1900
DGENRE=Hawaiian
TTITLE0=Honolulu Dance
TTITLE1=Aloha De
TTITLE2=Sarina
TTITLE3=Hilo March
TTITLE4=Beautiful Isle
TTITLE5=Terang Bulau
TTITLE6=Aloen Ajoen
TTITLE7=Hukilau Song
TTITLE8=Mama
TTITLE9=Pua Ika Cani
TTITLE10=Muana Kea
TTITLE11=Blue Wahini
TTITLE12=Imiau Ea Auwey
EXTD=
EXTT0=
EXTT1=
EXTT2=
EXTT3=
EXTT4=
EXTT5=
EXTT6=
EXTT7=
EXTT8=
EXTT9=
EXTT10=
EXTT11=
EXTT12=
PLAYORDER=
